<svg xmlns="http://www.w3.org/2000/svg" xmlns:xlink="http://www.w3.org/1999/xlink" width="500" zoomAndPan="magnify" viewBox="0 0 375 374.999991" height="500" preserveAspectRatio="xMidYMid meet" version="1.0"><defs><g/><clipPath id="2206bce230"><path d="M 8.246094 146.351562 L 372.089844 146.351562 L 372.089844 220.316406 L 8.246094 220.316406 Z M 8.246094 146.351562 " clip-rule="nonzero"/></clipPath><clipPath id="3c8c50f12d"><path d="M 8.261719 146.351562 L 371.996094 146.351562 L 371.996094 220.308594 L 8.261719 220.308594 Z M 8.261719 146.351562 " clip-rule="nonzero"/></clipPath></defs><rect x="-37.5" width="450" fill="#ffffff" y="-37.499999" height="449.999989" fill-opacity="1"/><rect x="-37.5" width="450" fill="#d9d9d9" y="-37.499999" height="449.999989" fill-opacity="1"/><g clip-path="url(#2206bce230)"><path fill="#000000" d="M 8.246094 146.351562 L 372.003906 146.351562 L 372.003906 220.316406 L 8.246094 220.316406 Z M 8.246094 146.351562 " fill-opacity="1" fill-rule="nonzero"/></g><g clip-path="url(#3c8c50f12d)"><path stroke-linecap="butt" transform="matrix(0.75, 0, 0, 0.75, 8.263633, 146.350625)" fill="none" stroke-linejoin="miter" d="M -0.0025518 0.00125028 L 485.075574 0.00125028 L 485.075574 98.610625 L -0.0025518 98.610625 Z M -0.0025518 0.00125028 " stroke="#ffffff" stroke-width="8" stroke-opacity="1" stroke-miterlimit="4"/></g><g fill="#ffffff" fill-opacity="1"><g transform="translate(11.881746, 201.953793)"><g><path d="M 21.296875 -37.28125 C 25.179688 -37.28125 28.828125 -36.285156 32.234375 -34.296875 L 27.3125 -26.96875 C 25.613281 -28.582031 23.65625 -29.390625 21.4375 -29.390625 C 20.28125 -29.390625 19.226562 -29.054688 18.28125 -28.390625 C 17.332031 -27.734375 16.859375 -26.925781 16.859375 -25.96875 C 16.859375 -25.257812 17.195312 -24.640625 17.875 -24.109375 C 18.550781 -23.578125 19.785156 -23.054688 21.578125 -22.546875 C 24.015625 -21.804688 25.78125 -21.085938 26.875 -20.390625 C 27.96875 -19.703125 28.816406 -18.851562 29.421875 -17.84375 C 30.035156 -16.832031 30.34375 -15.570312 30.34375 -14.0625 C 30.34375 -11.882812 29.78125 -9.570312 28.65625 -7.125 C 27.53125 -4.6875 25.691406 -2.742188 23.140625 -1.296875 C 20.585938 0.140625 17.5625 0.894531 14.0625 0.96875 C 9.570312 0.96875 5.523438 -0.410156 1.921875 -3.171875 L 7.171875 -10.796875 C 9.679688 -8.285156 12.269531 -7.03125 14.9375 -7.03125 C 16.414062 -7.03125 17.660156 -7.414062 18.671875 -8.1875 C 19.679688 -8.957031 20.1875 -9.9375 20.1875 -11.125 C 20.1875 -12.664062 18.644531 -13.851562 15.5625 -14.6875 C 11.832031 -15.71875 9.421875 -16.816406 8.328125 -17.984375 C 7.242188 -19.160156 6.703125 -20.726562 6.703125 -22.6875 C 6.703125 -26.800781 8.101562 -30.257812 10.90625 -33.0625 C 13.71875 -35.875 17.179688 -37.28125 21.296875 -37.28125 Z M 21.296875 -37.28125 "/></g></g></g><g fill="#ffffff" fill-opacity="1"><g transform="translate(36.402105, 201.953793)"><g><path d="M 44.65625 -21.671875 C 44.65625 -18.171875 43.640625 -14.539062 41.609375 -10.78125 C 39.585938 -7.03125 36.726562 -4.09375 33.03125 -1.96875 C 29.34375 0.144531 25.378906 1.203125 21.140625 1.203125 C 16.035156 1.203125 11.894531 -0.296875 8.71875 -3.296875 C 5.539062 -6.296875 3.953125 -10.253906 3.953125 -15.171875 C 3.953125 -19.222656 5.019531 -22.957031 7.15625 -26.375 C 9.289062 -29.789062 12.195312 -32.503906 15.875 -34.515625 C 19.550781 -36.523438 23.347656 -37.53125 27.265625 -37.53125 C 30.378906 -37.53125 33.289062 -36.851562 36 -35.5 C 38.71875 -34.15625 40.835938 -32.285156 42.359375 -29.890625 C 43.890625 -27.492188 44.65625 -24.753906 44.65625 -21.671875 Z M 22.59375 -7.953125 C 24.78125 -7.953125 26.796875 -8.550781 28.640625 -9.75 C 30.484375 -10.957031 31.953125 -12.515625 33.046875 -14.421875 C 34.140625 -16.335938 34.6875 -18.226562 34.6875 -20.09375 C 34.6875 -22.40625 33.8125 -24.363281 32.0625 -25.96875 C 30.3125 -27.570312 28.210938 -28.375 25.765625 -28.375 C 23.878906 -28.375 22.003906 -27.859375 20.140625 -26.828125 C 18.273438 -25.804688 16.769531 -24.425781 15.625 -22.6875 C 14.488281 -20.957031 13.921875 -19.03125 13.921875 -16.90625 C 13.921875 -14.300781 14.726562 -12.15625 16.34375 -10.46875 C 17.96875 -8.789062 20.050781 -7.953125 22.59375 -7.953125 Z M 22.59375 -7.953125 "/></g></g></g><g fill="#ffffff" fill-opacity="1"><g transform="translate(74.02596, 201.953793)"><g><path d="M 18.25 -36.328125 L 13.78125 -8 L 25.09375 -8 L 23.84375 0 L 3.078125 0 L 8.8125 -36.328125 Z M 18.25 -36.328125 "/></g></g></g><g fill="#ffffff" fill-opacity="1"><g transform="translate(92.76538, 201.953793)"><g><path d="M 44.65625 -21.671875 C 44.65625 -18.171875 43.640625 -14.539062 41.609375 -10.78125 C 39.585938 -7.03125 36.726562 -4.09375 33.03125 -1.96875 C 29.34375 0.144531 25.378906 1.203125 21.140625 1.203125 C 16.035156 1.203125 11.894531 -0.296875 8.71875 -3.296875 C 5.539062 -6.296875 3.953125 -10.253906 3.953125 -15.171875 C 3.953125 -19.222656 5.019531 -22.957031 7.15625 -26.375 C 9.289062 -29.789062 12.195312 -32.503906 15.875 -34.515625 C 19.550781 -36.523438 23.347656 -37.53125 27.265625 -37.53125 C 30.378906 -37.53125 33.289062 -36.851562 36 -35.5 C 38.71875 -34.15625 40.835938 -32.285156 42.359375 -29.890625 C 43.890625 -27.492188 44.65625 -24.753906 44.65625 -21.671875 Z M 22.59375 -7.953125 C 24.78125 -7.953125 26.796875 -8.550781 28.640625 -9.75 C 30.484375 -10.957031 31.953125 -12.515625 33.046875 -14.421875 C 34.140625 -16.335938 34.6875 -18.226562 34.6875 -20.09375 C 34.6875 -22.40625 33.8125 -24.363281 32.0625 -25.96875 C 30.3125 -27.570312 28.210938 -28.375 25.765625 -28.375 C 23.878906 -28.375 22.003906 -27.859375 20.140625 -26.828125 C 18.273438 -25.804688 16.769531 -24.425781 15.625 -22.6875 C 14.488281 -20.957031 13.921875 -19.03125 13.921875 -16.90625 C 13.921875 -14.300781 14.726562 -12.15625 16.34375 -10.46875 C 17.96875 -8.789062 20.050781 -7.953125 22.59375 -7.953125 Z M 22.59375 -7.953125 "/></g></g></g><path stroke-linecap="butt" transform="matrix(0.903363, 0, 0, 0.903363, 143.613861, 154.075538)" fill="none" stroke-linejoin="miter" d="M 26.026227 12.793607 C 29.896313 12.793607 32.953465 13.667078 35.193359 15.409698 C 37.433252 17.147994 38.553199 19.703548 38.553199 23.080685 C 38.553199 25.744342 37.965119 28.481509 36.793282 31.29651 C 35.621446 34.107187 33.723158 36.226005 31.08977 37.64864 C 28.460706 39.062627 25.511657 39.737189 22.238299 39.668003 L 16.00292 39.668003 L 13.866806 52.999261 L 3.411087 52.999261 L 9.763217 12.793607 Z M 18.878459 21.216989 L 17.330425 31.24462 L 19.894627 31.24462 C 22.843676 31.24462 24.841419 30.70843 25.883531 29.640372 C 26.934292 28.572315 27.45751 26.972391 27.45751 24.836277 C 27.45751 23.526069 27.025099 22.596383 26.155951 22.051544 C 25.291127 21.493733 23.894437 21.216989 21.978852 21.216989 Z M 62.236396 12.793607 L 60.84403 21.649401 L 48.425161 21.649401 L 47.357104 28.364757 L 59.140327 28.364757 L 57.760933 37.220552 L 45.964738 37.220552 L 44.844791 44.14779 L 57.276632 44.14779 L 55.884266 52.999261 L 33.009679 52.999261 L 39.361809 12.793607 Z M 73.479104 12.793607 L 68.51934 44.14779 L 81.059284 44.14779 L 79.67989 52.999261 L 56.684228 52.999261 L 63.040682 12.793607 Z M 94.226225 12.793607 L 87.882743 52.999261 L 77.427024 52.999261 L 83.783479 12.793607 Z M 122.008687 26.284856 C 121.191428 24.857897 120.02824 23.763895 118.519123 23.00285 C 117.005681 22.237481 115.34522 21.856959 113.533414 21.856959 C 110.156278 21.856959 107.202905 23.154195 104.677619 25.748666 C 102.152334 28.343137 100.889692 31.421909 100.889692 34.980659 C 100.889692 37.644316 101.745867 39.806375 103.453894 41.462512 C 105.161921 43.114326 107.419111 43.935908 110.225464 43.935908 C 111.93349 43.935908 113.650165 43.555386 115.36684 42.794341 C 117.096488 42.028972 118.618578 40.986859 119.937434 39.668003 L 117.905098 52.203623 C 117.16135 52.450098 115.855466 52.817648 113.987447 53.310597 C 112.119427 53.816519 110.264381 54.067318 108.413658 54.067318 C 105.174893 54.067318 102.152334 53.362487 99.341657 51.957148 C 96.535304 50.55181 94.269466 48.580012 92.544143 46.046078 C 90.823144 43.503496 89.949672 40.541475 89.915079 37.15569 C 89.915079 32.606718 91.035025 28.403674 93.270595 24.550885 C 95.510488 20.689447 98.610881 17.58473 102.56745 15.241058 C 106.53699 12.897385 110.618958 11.725549 114.822002 11.725549 C 117.805643 11.725549 120.880092 12.400112 124.036698 13.744913 Z M 135.184276 12.793607 L 131.876325 34.01638 C 131.55634 35.936289 131.396348 37.497296 131.396348 38.703725 C 131.396348 40.736061 131.82876 42.275447 132.697908 43.326208 C 133.575704 44.36832 135.080497 44.887214 137.216611 44.887214 C 139.811083 44.887214 141.791529 44.048335 143.153626 42.361929 C 144.524372 40.671199 145.475678 38.007542 146.00322 34.379606 L 149.376033 12.793607 L 159.818779 12.793607 L 156.199492 35.931965 C 155.486012 40.627958 154.257963 44.204004 152.515343 46.660103 C 150.768399 49.107554 148.446347 50.953953 145.549188 52.203623 C 142.656353 53.448969 139.400291 54.067318 135.772356 54.067318 C 130.864481 54.067318 127.098174 53.007909 124.46911 50.889091 C 121.840046 48.774597 120.525514 45.6915 120.525514 41.64845 C 120.525514 40.900377 120.560107 40.083119 120.629293 39.196674 C 120.698479 38.305906 122.0649 29.502001 124.728557 12.793607 Z M 171.230128 12.793607 L 166.26604 44.14779 L 178.805984 44.14779 L 177.42659 52.999261 L 154.430927 52.999261 L 160.787382 12.793607 Z M 204.772315 12.793607 L 213.571897 52.999261 L 202.428643 52.999261 L 200.945471 46.007161 L 186.541832 46.007161 L 182.650125 52.999261 L 171.558761 52.999261 L 193.365291 12.793607 Z M 190.69731 38.011866 L 199.393112 38.011866 L 197.153219 25.216799 L 197.04944 25.216799 Z M 231.326727 11.725549 C 235.63355 11.725549 239.667952 12.828199 243.438583 15.0335 L 237.994518 23.132574 C 236.109203 21.351037 233.942819 20.464593 231.495368 20.464593 C 230.211105 20.464593 229.043593 20.827819 227.992832 21.558595 C 226.955044 22.285047 226.431825 23.184463 226.431825 24.252521 C 226.431825 25.030862 226.803699 25.718397 227.551772 26.310801 C 228.299844 26.898881 229.666266 27.478313 231.65536 28.040449 C 234.35361 28.857707 236.303788 29.644696 237.510217 30.410065 C 238.729618 31.175434 239.667952 32.113768 240.33819 33.233715 C 241.012753 34.353662 241.354358 35.754676 241.354358 37.42811 C 241.354358 39.840968 240.731685 42.400846 239.490663 45.107744 C 238.249641 47.810318 236.212981 49.96373 233.385008 51.567978 C 230.557034 53.163577 227.205842 53.998132 223.331432 54.067318 C 218.358696 54.067318 213.878909 52.540904 209.896396 49.483752 L 215.703687 41.047397 C 218.479771 43.823481 221.346662 45.215847 224.295711 45.215847 C 225.930227 45.215847 227.305297 44.78776 228.425244 43.935908 C 229.545191 43.079733 230.103002 41.994379 230.103002 40.684171 C 230.103002 38.97182 228.399299 37.657288 224.98757 36.736251 C 220.862361 35.599008 218.194379 34.38393 216.979302 33.091019 C 215.772873 31.789459 215.171821 30.055488 215.171821 27.88478 C 215.171821 23.335808 216.724179 19.508963 219.83322 16.399921 C 222.946586 13.286556 226.777755 11.725549 231.326727 11.725549 Z M 231.326727 11.725549 " stroke="#000000" stroke-width="5.399997" stroke-opacity="1" stroke-miterlimit="4"/><g fill="#ffffff" fill-opacity="1"><g transform="translate(143.613861, 201.953793)"><g><path d="M 23.515625 -36.328125 C 27.015625 -36.328125 29.773438 -35.535156 31.796875 -33.953125 C 33.816406 -32.378906 34.828125 -30.070312 34.828125 -27.03125 C 34.828125 -24.613281 34.296875 -22.132812 33.234375 -19.59375 C 32.179688 -17.0625 30.460938 -15.15625 28.078125 -13.875 C 25.703125 -12.59375 23.039062 -11.984375 20.09375 -12.046875 L 14.453125 -12.046875 L 12.53125 0 L 3.078125 0 L 8.8125 -36.328125 Z M 17.046875 -28.703125 L 15.65625 -19.65625 L 17.96875 -19.65625 C 20.632812 -19.65625 22.441406 -20.132812 23.390625 -21.09375 C 24.335938 -22.0625 24.8125 -23.507812 24.8125 -25.4375 C 24.8125 -26.625 24.414062 -27.460938 23.625 -27.953125 C 22.84375 -28.453125 21.582031 -28.703125 19.84375 -28.703125 Z M 17.046875 -28.703125 "/></g></g></g><g fill="#ffffff" fill-opacity="1"><g transform="translate(170.350255, 201.953793)"><g><path d="M 29.484375 -36.328125 L 28.234375 -28.328125 L 17 -28.328125 L 16.046875 -22.25 L 26.6875 -22.25 L 25.4375 -14.265625 L 14.78125 -14.265625 L 13.78125 -8 L 25 -8 L 23.75 0 L 3.078125 0 L 8.8125 -36.328125 Z M 29.484375 -36.328125 "/></g></g></g><g fill="#ffffff" fill-opacity="1"><g transform="translate(191.739264, 201.953793)"><g><path d="M 18.25 -36.328125 L 13.78125 -8 L 25.09375 -8 L 23.84375 0 L 3.078125 0 L 8.8125 -36.328125 Z M 18.25 -36.328125 "/></g></g></g><g fill="#ffffff" fill-opacity="1"><g transform="translate(210.47868, 201.953793)"><g><path d="M 18.25 -36.328125 L 12.53125 0 L 3.078125 0 L 8.8125 -36.328125 Z M 18.25 -36.328125 "/></g></g></g><g fill="#ffffff" fill-opacity="1"><g transform="translate(220.980244, 201.953793)"><g><path d="M 32.859375 -24.140625 C 32.117188 -25.421875 31.066406 -26.40625 29.703125 -27.09375 C 28.335938 -27.78125 26.832031 -28.125 25.1875 -28.125 C 22.144531 -28.125 19.484375 -26.953125 17.203125 -24.609375 C 14.921875 -22.265625 13.78125 -19.488281 13.78125 -16.28125 C 13.78125 -13.875 14.550781 -11.921875 16.09375 -10.421875 C 17.632812 -8.929688 19.671875 -8.1875 22.203125 -8.1875 C 23.742188 -8.1875 25.289062 -8.53125 26.84375 -9.21875 C 28.40625 -9.914062 29.78125 -10.859375 30.96875 -12.046875 L 29.140625 -0.71875 C 28.460938 -0.5 27.28125 -0.164062 25.59375 0.28125 C 23.914062 0.738281 22.238281 0.96875 20.5625 0.96875 C 17.644531 0.96875 14.914062 0.332031 12.375 -0.9375 C 9.84375 -2.207031 7.796875 -3.988281 6.234375 -6.28125 C 4.679688 -8.582031 3.890625 -11.257812 3.859375 -14.3125 C 3.859375 -18.414062 4.867188 -22.207031 6.890625 -25.6875 C 8.910156 -29.175781 11.710938 -31.976562 15.296875 -34.09375 C 18.878906 -36.21875 22.5625 -37.28125 26.34375 -37.28125 C 29.039062 -37.28125 31.820312 -36.671875 34.6875 -35.453125 Z M 32.859375 -24.140625 "/></g></g></g><g fill="#ffffff" fill-opacity="1"><g transform="translate(247.668464, 201.953793)"><g><path d="M 18.0625 -36.328125 L 15.078125 -17.15625 C 14.785156 -15.414062 14.640625 -14 14.640625 -12.90625 C 14.640625 -11.082031 15.03125 -9.695312 15.8125 -8.75 C 16.601562 -7.800781 17.960938 -7.328125 19.890625 -7.328125 C 22.234375 -7.328125 24.023438 -8.085938 25.265625 -9.609375 C 26.503906 -11.128906 27.363281 -13.53125 27.84375 -16.8125 L 30.875 -36.328125 L 40.3125 -36.328125 L 37.046875 -15.421875 C 36.398438 -11.179688 35.289062 -7.953125 33.71875 -5.734375 C 32.144531 -3.515625 30.050781 -1.84375 27.4375 -0.71875 C 24.820312 0.40625 21.875 0.96875 18.59375 0.96875 C 14.164062 0.96875 10.757812 0.015625 8.375 -1.890625 C 6 -3.804688 4.8125 -6.597656 4.8125 -10.265625 C 4.8125 -10.929688 4.84375 -11.664062 4.90625 -12.46875 C 4.976562 -13.28125 6.21875 -21.234375 8.625 -36.328125 Z M 18.0625 -36.328125 "/></g></g></g><g fill="#ffffff" fill-opacity="1"><g transform="translate(280.041294, 201.953793)"><g><path d="M 18.25 -36.328125 L 13.78125 -8 L 25.09375 -8 L 23.84375 0 L 3.078125 0 L 8.8125 -36.328125 Z M 18.25 -36.328125 "/></g></g></g><g fill="#ffffff" fill-opacity="1"><g transform="translate(298.780706, 201.953793)"><g><path d="M 29.8125 -36.328125 L 37.765625 0 L 27.703125 0 L 26.34375 -6.3125 L 13.34375 -6.3125 L 9.828125 0 L -0.1875 0 L 19.515625 -36.328125 Z M 17.09375 -13.53125 L 24.953125 -13.53125 L 22.9375 -25.09375 L 22.828125 -25.09375 Z M 17.09375 -13.53125 "/></g></g></g><g fill="#ffffff" fill-opacity="1"><g transform="translate(331.298063, 201.953793)"><g><path d="M 21.296875 -37.28125 C 25.179688 -37.28125 28.828125 -36.285156 32.234375 -34.296875 L 27.3125 -26.96875 C 25.613281 -28.582031 23.65625 -29.390625 21.4375 -29.390625 C 20.28125 -29.390625 19.226562 -29.054688 18.28125 -28.390625 C 17.332031 -27.734375 16.859375 -26.925781 16.859375 -25.96875 C 16.859375 -25.257812 17.195312 -24.640625 17.875 -24.109375 C 18.550781 -23.578125 19.785156 -23.054688 21.578125 -22.546875 C 24.015625 -21.804688 25.78125 -21.085938 26.875 -20.390625 C 27.96875 -19.703125 28.816406 -18.851562 29.421875 -17.84375 C 30.035156 -16.832031 30.34375 -15.570312 30.34375 -14.0625 C 30.34375 -11.882812 29.78125 -9.570312 28.65625 -7.125 C 27.53125 -4.6875 25.691406 -2.742188 23.140625 -1.296875 C 20.585938 0.140625 17.5625 0.894531 14.0625 0.96875 C 9.570312 0.96875 5.523438 -0.410156 1.921875 -3.171875 L 7.171875 -10.796875 C 9.679688 -8.285156 12.269531 -7.03125 14.9375 -7.03125 C 16.414062 -7.03125 17.660156 -7.414062 18.671875 -8.1875 C 19.679688 -8.957031 20.1875 -9.9375 20.1875 -11.125 C 20.1875 -12.664062 18.644531 -13.851562 15.5625 -14.6875 C 11.832031 -15.71875 9.421875 -16.816406 8.328125 -17.984375 C 7.242188 -19.160156 6.703125 -20.726562 6.703125 -22.6875 C 6.703125 -26.800781 8.101562 -30.257812 10.90625 -33.0625 C 13.71875 -35.875 17.179688 -37.28125 21.296875 -37.28125 Z M 21.296875 -37.28125 "/></g></g></g></svg>